<svg width="32" height="32" viewBox="0 0 32 32" fill="none" xmlns="http://www.w3.org/2000/svg">
<g clip-path="url(#clip0_1265_359)">
<path d="M29.63 0.0012207H2.362C1.06 0.0012207 0 1.03422 0 2.30622V29.6902C0 30.9652 1.06 32.0002 2.362 32.0002H29.632C30.937 32.0002 32 30.9652 32 29.6902V2.30622C32 1.03422 30.937 0.0012207 29.63 0.0012207Z" fill="#0177B5"/>
<path d="M4.74521 11.997H9.50021V27.267H4.74521V11.997ZM7.11921 4.39697C8.63621 4.39697 9.86921 5.62997 9.86921 7.14697C9.86921 8.66397 8.63621 9.89997 7.12021 9.89997C6.39046 9.89839 5.69105 9.60787 5.17494 9.09195C4.65884 8.57603 4.36806 7.87672 4.36621 7.14697C4.36621 6.78559 4.43744 6.42774 4.57583 6.0939C4.71422 5.76006 4.91705 5.45677 5.17273 5.20137C5.42841 4.94597 5.73192 4.74347 6.06591 4.60544C6.3999 4.46742 6.75782 4.39658 7.11921 4.39697ZM12.4692 11.997H17.0212V14.084H17.0842C17.7182 12.884 19.2662 11.618 21.5842 11.618C26.3902 11.618 27.2772 14.781 27.2772 18.892V27.268H22.5342V19.84C22.5342 18.07 22.5022 15.79 20.0682 15.79C17.5982 15.79 17.2182 17.72 17.2182 19.71V27.264H12.4762V11.994L12.4692 11.997Z" fill="white"/>
</g>
<defs>
<clipPath id="clip0_1265_359">
<rect width="32" height="32" fill="white"/>
</clipPath>
</defs>
</svg>
