<svg width="32" height="32" viewBox="0 0 32 32" fill="none" xmlns="http://www.w3.org/2000/svg">
<g clip-path="url(#clip0_1265_362)">
<path d="M32 6.07557C30.8232 6.597 29.559 6.94932 28.2301 7.10857C29.5858 6.29684 30.6259 5.00867 31.1163 3.47533C29.8479 4.22794 28.4428 4.77473 26.9476 5.06786C25.7496 3.79389 24.0444 2.99622 22.1559 2.99622C18.5311 2.99622 15.5913 5.93603 15.5913 9.56362C15.5915 10.0664 15.6482 10.5675 15.7604 11.0575C10.3021 10.7827 5.46674 8.16837 2.22814 4.19694C1.66447 5.16936 1.34026 6.29684 1.34026 7.49756C1.34026 9.77496 2.50019 11.7861 4.26037 12.9629C3.21787 12.9297 2.19837 12.648 1.28672 12.1413V12.2258C1.28672 15.4066 3.54869 18.0604 6.55335 18.6636C5.98954 18.8157 5.40807 18.8925 4.8241 18.8919C4.40941 18.8922 3.99561 18.8535 3.58817 18.7763C4.42389 21.3835 6.84793 23.2833 9.72153 23.334C7.47361 25.0957 4.64232 26.1456 1.56717 26.1456C1.03727 26.1456 0.514397 26.1146 0 26.054C2.90605 27.9186 6.35606 29.0037 10.0626 29.0037C22.1404 29.0037 28.7431 19.0004 28.7431 10.3246C28.7431 10.0428 28.736 9.75808 28.7233 9.47625C30.0058 8.54888 31.1192 7.39468 31.9971 6.07978L32 6.07557Z" fill="#1DA1F2"/>
</g>
<defs>
<clipPath id="clip0_1265_362">
<rect width="32" height="32" fill="white"/>
</clipPath>
</defs>
</svg>
